<svg width="100%" height="100%" viewBox="0 0 571 823" fill="none" xmlns="http://www.w3.org/2000/svg">
<path d="M218.603 755.639L218.143 755.617L206.116 755.033L205.674 755.011L205.599 755.447L205.599 755.449C205.598 755.45 205.598 755.453 205.597 755.456C205.596 755.463 205.594 755.474 205.591 755.488C205.586 755.517 205.578 755.56 205.567 755.616C205.546 755.729 205.514 755.896 205.469 756.109C205.38 756.537 205.244 757.152 205.055 757.898C204.679 759.391 204.095 761.401 203.268 763.478C202.44 765.558 201.376 767.688 200.043 769.429C198.708 771.173 197.133 772.492 195.292 773.021L195.231 773.038L195.177 773.07C193.831 773.86 191.394 774.274 188.023 774.255C184.679 774.236 180.504 773.792 175.755 772.944C166.257 771.249 154.511 767.946 142.618 763.242C130.725 758.538 118.7 752.439 108.64 745.16C98.5969 737.893 90.5476 729.475 86.507 720.128C84.941 706.616 85.1213 672.295 85.1264 634.618C85.1314 596.915 84.96 555.886 82.6723 529.173C83.0532 500.896 83.1995 468.176 82.9351 442.082C82.8029 429.031 82.5677 417.634 82.2078 409.277C82.0279 405.1 81.8166 401.676 81.5704 399.182C81.4474 397.937 81.3153 396.914 81.1718 396.142C81.1002 395.757 81.0238 395.425 80.9422 395.156C80.8639 394.897 80.7684 394.653 80.6401 394.474L80.5836 394.396L80.5027 394.344C80.0766 394.072 79.57 393.537 79.0093 392.701C78.4538 391.872 77.8669 390.783 77.2685 389.447C76.072 386.775 74.8444 383.149 73.7256 378.72C71.4885 369.864 69.6981 357.832 69.4633 343.867C68.9941 315.961 74.7356 280.377 95.4821 247.009C120.292 229.221 149.849 219.222 170.601 212.001L171.007 211.86L170.928 211.438C169.908 205.984 168.609 197.318 168.032 189.057C167.743 184.926 167.635 180.906 167.83 177.445C168.026 173.968 168.526 171.113 169.414 169.273C174 159.775 197.211 127.047 266.442 123.149C301.108 121.197 323.163 124.557 337.01 129.608C350.826 134.647 356.432 141.352 358.299 146.113C360.027 153.242 360.427 164.658 360.397 174.592C360.382 179.557 360.259 184.137 360.145 187.602C360.031 191.042 359.924 193.428 359.942 193.95L359.95 194.205L360.162 194.347C365.841 198.184 376.571 203.29 389.49 208.959C402.423 214.633 417.599 220.892 432.194 227.031C446.795 233.173 460.814 239.194 471.453 244.401C476.773 247.005 481.236 249.399 484.497 251.496C486.128 252.545 487.448 253.513 488.421 254.388C489.406 255.273 489.99 256.025 490.219 256.633L490.224 256.646L490.23 256.659C499.669 277.959 499.26 307.285 495.904 334.112C492.549 360.927 486.27 385.112 484.038 396.155C477.408 428.96 474.77 497.143 473.986 562.883C473.203 628.571 474.271 691.886 475.077 715.195C470 733.529 454.193 748.199 432.721 759.505C411.234 770.82 384.156 778.722 356.743 783.545C329.334 788.369 301.617 790.11 278.865 789.12C267.489 788.625 257.366 787.447 249.148 785.634C240.914 783.819 234.652 781.378 230.948 778.395C227.866 775.911 224.806 771.199 222.491 766.621C221.339 764.342 220.381 762.114 219.705 760.245C219.022 758.356 218.647 756.887 218.619 756.099L218.603 755.639Z" fill="url(#paint0_linear_2959_3)" stroke="#989898"/>
<path d="M359.52 152.941C346.051 182.925 290.087 199.375 262.347 207.341C234.029 256.352 227.175 448.205 226.23 464.248C240.791 465.744 361.048 477.495 478.333 440.407" stroke="#AFA53D"/>
<path d="M168.395 173.489C166.625 194.563 192.938 203.156 194.853 208.682C208.729 233.716 213.625 245.053 219.35 265.867C206.788 350.853 204.659 390.451 200.142 462.151C177.104 461.449 110.797 453.742 83.0676 433.191" stroke="#C7BE56"/>
<path d="M398.577 211.622C428.441 221.593 469.127 240.694 466.664 241.781C424.931 250.232 420.045 301.199 405.293 330.461C400.827 348.627 332.709 331.978 334.067 313.419C335.719 303.356 357.452 237.563 398.577 211.622Z" fill="#595959" stroke="#595959"/>
<path d="M351.695 316.81C347.641 314.458 347.022 309.902 348.298 305.421C349.575 300.94 373.734 230.995 407.693 214.808C429.213 222.935 459.46 236.027 458.995 237.043C421.847 247.838 410.337 295.426 399.81 318.97C395.098 328.41 390.382 327.364 383.869 326.379C377.355 325.395 362.349 322.991 351.695 316.81Z" fill="url(#paint1_linear_2959_3)" stroke="#CDCDCD"/>
<path d="M117.662 233.372C124.779 228.622 150.605 216.72 163.011 213.788C138.566 244.654 138.61 289.179 138.907 312.183C138.049 330.724 94.7657 337.728 92.3511 325.805C89.9364 313.881 94.5608 259.688 117.662 233.372Z" fill="#595959" stroke="#595959"/>
<path d="M101.776 323.477C98.6387 323.005 98.1396 319.6 97.949 314.104C97.7584 308.607 102.539 258.911 124.055 230.148C128.963 226.667 143.214 219.978 154.103 216.599C136.825 237.71 130.027 278.971 131.031 307.928C131.327 316.448 111.723 324.971 101.776 323.477Z" fill="url(#paint2_linear_2959_3)" stroke="#CDCDCD"/>
<path d="M358.277 313.554C357.277 313.054 354.776 301.054 354.777 300.554C354.777 300.054 357.284 293.554 357.777 293.554C358.269 293.554 365.276 315.554 364.777 315.554C364.277 315.554 359.276 314.054 358.277 313.554Z" fill="#00AAD9" stroke="#007899"/>
<path d="M371.277 316.054C370.777 315.554 361.776 286.554 361.777 286.054C361.777 285.554 363.777 279.054 364.277 279.054C364.776 279.054 377.776 317.054 377.277 317.054C376.777 317.054 371.776 316.554 371.277 316.054Z" fill="#00AAD9" stroke="#007899"/>
<path d="M383.277 317.054C382.776 316.054 366.776 274.054 367.277 273.054L367.292 273.025C367.824 271.96 370.282 267.049 370.777 266.554C371.276 266.054 390.777 316.554 390.277 317.054C389.777 317.554 383.777 318.054 383.277 317.054Z" fill="#00AAD9" stroke="#007899"/>
<path d="M393.777 312.554C393.277 313.054 374.777 260.054 374.777 259.554C374.777 259.054 377.777 253.054 378.277 253.054C378.777 253.054 397.277 303.054 397.277 303.554C397.277 304.054 394.277 312.054 393.777 312.554Z" fill="#00AAD9" stroke="#007899"/>
<path d="M400.277 296.054C399.777 296.054 382.777 246.054 382.777 245.554C382.777 245.054 386.777 239.054 387.277 239.054C387.777 239.054 404.277 286.554 404.277 287.054C404.276 287.554 400.776 296.054 400.277 296.054Z" fill="#00AAD9" stroke="#007899"/>
<path d="M408.277 280.054C407.777 280.554 391.777 233.554 391.777 233.054C391.777 232.554 396.777 227.054 397.277 227.054C397.777 227.054 412.777 270.554 412.777 271.054C412.777 271.554 408.777 279.554 408.277 280.054Z" fill="#00AAD9" stroke="#007899"/>
<path d="M417.277 263.554C416.777 263.554 402.777 223.054 402.777 222.554C402.777 222.054 408.777 218.054 409.277 218.554C409.777 219.054 422.277 255.554 422.277 256.054C422.277 256.554 417.777 263.554 417.277 263.554Z" fill="#00AAD9" stroke="#007899"/>
<path d="M427.277 249.554C426.777 249.554 414.277 217.554 414.777 217.554C415.277 217.554 421.777 220.054 422.277 220.554C422.776 221.054 433.277 242.554 433.277 243.054C433.277 243.554 427.776 249.554 427.277 249.554Z" fill="#00AAD9" stroke="#007899"/>
<path d="M437.277 239.054C436.276 238.554 429.776 223.554 430.276 223.554C430.777 223.554 438.277 227.054 438.277 227.054C443.707 232.647 444.277 234.554 443.277 235.554C442.277 236.554 438.277 239.554 437.277 239.054Z" fill="#00AAD9" stroke="#007899"/>
<path d="M108.776 318.054C107.679 317.844 102.045 309.443 101.909 308.962C101.774 308.481 102.422 301.544 102.896 301.41C103.37 301.277 115.056 316.579 114.575 316.715C114.094 316.85 109.874 318.264 108.776 318.054Z" fill="#00AAD9" stroke="#007899"/>
<path d="M118.73 313.22C118.114 312.875 104.846 293.588 104.71 293.106C104.575 292.625 104.736 285.826 105.216 285.69C105.697 285.555 124.757 310.918 124.276 311.054C123.796 311.189 119.347 313.566 118.73 313.22Z" fill="#00AAD9" stroke="#007899"/>
<path d="M127.277 308.056C126.524 307.229 106.264 280.202 106.474 279.104L106.481 279.071C106.704 277.902 107.737 272.509 108.079 271.898C108.424 271.281 128.622 298.437 128.276 299.054C127.931 299.671 128.03 308.883 127.277 308.056Z" fill="#00AAD9" stroke="#007899"/>
<path d="M128.851 291.166C128.506 291.783 110.164 264.554 110.028 264.072C109.893 263.591 111.795 257.69 112.276 257.554C112.758 257.418 129.64 281.073 129.776 281.554C129.912 282.035 129.196 290.549 128.851 291.166Z" fill="#00AAD9" stroke="#007899"/>
<path d="M130.37 274.302C129.889 274.437 115.412 251.535 115.276 251.054C115.141 250.573 117.796 243.69 118.277 243.554C118.757 243.418 131.641 264.073 131.776 264.554C131.912 265.035 130.851 274.166 130.37 274.302Z" fill="#00AAD9" stroke="#007899"/>
<path d="M133.776 257.054C133.431 257.671 121.412 239.535 121.277 239.054C121.141 238.573 124.795 231.69 125.276 231.554C125.757 231.418 136.141 247.573 136.276 248.054C136.412 248.535 134.122 256.437 133.776 257.054Z" fill="#00AAD9" stroke="#007899"/>
<path d="M138.276 240.054C137.795 240.19 128.912 228.035 128.776 227.554C128.641 227.073 134.776 224.054 136.277 223.554C136.894 223.899 141.641 232.073 141.776 232.554C141.912 233.035 138.758 239.918 138.276 240.054Z" fill="#00AAD9" stroke="#007899"/>
<path d="M145.776 227.054C145.295 227.19 141.262 221.338 141.743 221.203C142.225 221.067 145.777 219.554 147.276 219.054C148.277 219.054 149.651 218.688 149.787 219.169C149.922 219.651 146.257 226.918 145.776 227.054Z" fill="#00AAD9" stroke="#007899"/>
<path d="M478.731 451.901C325.936 503.728 127.185 485.605 82.7237 444.122C80.6556 442.192 80.0953 483.737 81.9063 492.679C110.138 527.722 359.046 549.608 476.707 494.496C478.651 478.419 479.511 474.387 478.731 451.901Z" fill="url(#paint3_linear_2959_3)" stroke="white"/>
<path d="M474.936 515.57C392.46 560.956 127.131 556.15 82.6691 514.666C80.601 512.736 82.7297 559.691 84.5408 568.633C117.942 608.5 312.609 638.771 475.242 582.1C476.444 559.044 475.716 538.057 474.936 515.57Z" fill="url(#paint4_linear_2959_3)" stroke="white"/>
<path d="M344.734 144.948C312.352 120.056 190.203 132.297 178.563 171.724C173.311 193.419 195.402 195.655 199.281 206.527C200.905 211.079 218.327 236.385 224.295 264.194L237.839 265.226C241.452 239.585 253.166 201.609 257.625 201.001C301.942 194.962 366.88 161.972 344.734 144.948Z" fill="url(#paint5_linear_2959_3)" stroke="#7B7B7B" stroke-width="2"/>
<path d="M231.273 263.452C221.799 325.443 196.97 567.729 211.671 758.429" stroke="url(#paint6_linear_2959_3)" stroke-width="15"/>
<path d="M231.325 264.951C218.747 330.157 197.534 571.892 211.866 756.921" stroke="#383838" stroke-width="3" stroke-linecap="square"/>
<g filter="url(#filter0_i_2959_3)">
<path d="M431.292 610.228C400.209 619.31 314.827 625.508 281.78 623.418C279.611 632.999 282.969 763.461 290.304 768.209C312.311 782.455 426.67 761.979 435.642 735.652C437.513 699.566 432.09 633.214 431.292 610.228Z" fill="url(#paint7_linear_2959_3)" stroke="#A29C00" stroke-linecap="round"/>
<g filter="url(#filter1_i_2959_3)">
<path d="M432.6 601.177C380.669 618.487 314.708 620.775 281.676 620.419C279.782 623.487 277.878 669.581 285.46 671.819C300.753 676.334 419.953 671.157 434.281 649.648C436.328 646.575 434.102 615.633 432.6 601.177Z" fill="#DADC61"/>
</g>
<path d="M432.6 601.177C380.669 618.487 314.708 620.775 281.676 620.419C279.782 623.487 277.878 669.581 285.46 671.819C300.753 676.334 419.953 671.157 434.281 649.648C436.328 646.575 434.102 615.633 432.6 601.177Z" stroke="#A29C00" stroke-linecap="round"/>
</g>
<g filter="url(#filter2_i_2959_3)">
<path d="M84.8992 596.726C98.5391 604.258 138.503 619.116 152.424 615.397C153.545 647.721 155.122 715.749 153.403 729.438C149.932 757.077 91.0553 729.594 85.947 703.754C81.9566 639.35 84.3329 618.76 84.8992 596.726Z" fill="#EDEF76"/>
</g>
<path d="M84.8992 596.726C98.5391 604.258 138.503 619.116 152.424 615.397C153.545 647.721 155.122 715.749 153.403 729.438C149.932 757.077 91.0553 729.594 85.947 703.754C81.9566 639.35 84.3329 618.76 84.8992 596.726Z" stroke="#A29C00" stroke-linecap="round"/>
<path d="M153.06 611.284C151.908 621.33 150.775 646.384 146.038 654.053C128.757 660.656 77.3859 636.422 82.5013 625.238" stroke="#2D2D2D" stroke-width="3" stroke-linecap="square"/>
<g filter="url(#filter3_i_2959_3)">
<path d="M83.9423 588.254C85.0748 584.418 86.4168 582.665 87.7493 582.619C101.826 596.139 135.938 606.463 151.234 609.935C150.765 620.457 147.624 650.084 145.194 652.169C136.026 660.04 87.6742 638.155 82.865 629.316C80.1932 624.406 83.047 591.287 83.9423 588.254Z" fill="#EDEF76"/>
</g>
<path d="M83.9423 588.254C85.0748 584.418 86.4168 582.665 87.7493 582.619C101.826 596.139 135.938 606.463 151.234 609.935C150.765 620.457 147.624 650.084 145.194 652.169C136.026 660.04 87.6742 638.155 82.865 629.316C80.1932 624.406 83.047 591.287 83.9423 588.254Z" stroke="#A29C00"/>
<path d="M471.909 254.225C474.509 253.339 477.31 253.221 480.069 254.206C482.596 255.109 484.715 256.804 486.472 258.95L486.819 259.384L487.066 259.703L487.26 260.06C489.515 264.208 490.95 270.028 491.888 276.534C492.843 283.16 493.345 290.975 493.482 299.422C493.756 316.326 492.575 336.112 490.468 354.666C488.365 373.187 485.311 390.716 481.769 403.048C480.025 409.116 478.038 414.387 475.738 417.88C474.62 419.578 473.044 421.46 470.842 422.478C468.175 423.71 465.329 423.344 463.012 421.694L462.845 421.575L462.688 421.442C448.325 409.32 441.108 390.918 438.395 371.371C435.674 351.769 437.387 330.42 441.453 311.541C445.503 292.739 452.003 275.867 459.245 265.384C462.781 260.266 467.02 255.892 471.909 254.225Z" fill="url(#paint8_linear_2959_3)" stroke="#3A3A3A" stroke-width="10"/>
<path d="M473.872 257.536C475.653 256.935 477.421 256.889 479.127 257.489C480.721 258.049 482.223 259.16 483.614 260.838L483.89 261.18L483.915 261.212L483.934 261.248C485.82 264.675 487.179 269.851 488.1 276.213C489.024 282.588 489.515 290.2 489.642 298.534C489.896 315.204 488.692 334.794 486.551 353.208C484.41 371.617 481.33 388.874 477.825 400.87C476.075 406.858 474.207 411.582 472.271 414.48C471.307 415.925 470.287 416.975 469.204 417.47C468.077 417.984 466.931 417.874 465.84 417.109L465.823 417.096L465.808 417.083C452.452 405.965 445.466 388.806 442.823 369.853C440.18 350.896 441.873 330.085 445.933 311.578C449.993 293.079 456.429 276.827 463.311 267.004C466.744 262.104 470.34 258.728 473.872 257.536Z" stroke="#828282"/>
<path d="M474.82 707.777C445.095 788.356 247.763 791.197 234.907 772.131C210.788 711.431 224.682 477.309 225.904 469.262C231.4 469.071 356.707 482.148 477.972 444.422" stroke="#AFA53D"/>
<path d="M86.3454 715.246C103.119 751.687 168.842 771.421 192.603 764.093C197.513 761.421 190.399 599.571 199.815 467.165C189.235 465.03 116.571 461.546 82.6892 436.706" stroke="#AFA53D"/>
<path d="M95.0753 245.662C95.7409 244.747 100.742 242.376 106.652 239.669C60.711 314.306 75.7511 380.913 80.8031 396.748C61.1531 363.909 65.3123 286.566 95.0753 245.662Z" fill="#3A3A3A"/>
<path d="M99.1938 249.021L106.652 239.669M106.652 239.669C100.742 242.376 95.7409 244.747 95.0753 245.662C65.3123 286.566 61.1531 363.909 80.8031 396.748C75.7511 380.913 60.711 314.306 106.652 239.669Z" stroke="#3A3A3A"/>
<path d="M360.976 194.916C339.015 239.704 280.313 263.753 245.334 264.966" stroke="#AFA53D"/>
<path d="M362.51 195.863C340.136 243.167 279.401 266.286 244.422 267.499" stroke="#AFA53D"/>
<path d="M168.956 212.081C169.51 228.072 185.919 254.019 218.385 266.901" stroke="#DDD46D"/>
<path d="M170.437 211.53C170.923 225.521 186.849 251.985 218.299 264.403" stroke="#DDD46D"/>
<path d="M227.38 619.213C225.421 562.747 228.391 504.109 232.758 456.929L239.789 457.686C235.97 491.839 234.315 573.945 235.892 619.418C232.894 619.522 229.396 619.643 227.38 619.213Z" fill="#2E2E2E" stroke="black"/>
<path d="M187.248 616.102C189.748 543.472 191.737 485.868 193.624 453.234L186.593 452.487C184.981 478.598 184.562 538.649 179.735 615.862C182.233 615.776 185.447 616.165 187.248 616.102Z" fill="#2E2E2E" stroke="black"/>
<path d="M219.468 303.486C218.743 302.7 226.682 259.83 231.606 260.877C237.925 261.874 235.188 303.752 234.519 304.587C233.849 305.421 220.194 304.272 219.468 303.486Z" fill="url(#paint9_linear_2959_3)" stroke="black"/>
<path d="M232.815 295.721C232.513 295.083 226.022 294.47 223.344 294.427C222.645 294.413 221.099 300.184 221.128 300.995C221.156 301.805 232.719 303.027 233.04 302.204C233.47 301.101 233.38 296.919 232.815 295.721Z" fill="url(#paint10_linear_2959_3)" stroke="black"/>
<path d="M191.422 479.166C192.018 478.77 194.538 449.229 191.246 449.098C187.083 448.703 181.453 476.725 181.729 477.385C182.004 478.046 190.825 479.563 191.422 479.166Z" fill="url(#paint11_linear_2959_3)" stroke="black"/>
<path d="M184.362 471.833C184.664 471.463 188.869 472.14 190.567 472.558C191.011 472.665 190.972 476.721 190.812 477.25C190.652 477.779 183.139 476.658 183.081 476.063C183.003 475.265 183.794 472.528 184.362 471.833Z" fill="url(#paint12_linear_2959_3)" stroke="black"/>
<path d="M237.602 483.568C238.198 483.172 240.718 453.631 237.427 453.5C233.263 453.105 227.633 481.127 227.909 481.788C228.185 482.448 237.006 483.965 237.602 483.568Z" fill="url(#paint13_linear_2959_3)" stroke="black"/>
<path d="M230.542 476.236C230.844 475.865 235.05 476.542 236.747 476.96C237.191 477.067 237.152 481.123 236.992 481.652C236.832 482.181 229.319 481.06 229.261 480.465C229.183 479.667 229.975 476.93 230.542 476.236Z" fill="url(#paint14_linear_2959_3)" stroke="black"/>
<path d="M476.124 246.867C431.651 248.41 407.142 392.846 460.91 428.504C464.938 431.175 473.041 432.086 480.225 422.831" stroke="#968E31"/>
<path d="M110.098 238.049C83.0013 279.013 67.3897 344.593 80.904 391.653C81.473 393.634 81.5947 397.132 81.1121 397.649" stroke="#968E31"/>
<path d="M233.46 780.098C229.848 778.524 222.033 767.987 218.671 757.597C220.982 766.523 226.859 777.325 233.012 781.615C284.882 805.831 457.602 780.33 475.701 725.169C475.701 725.169 475.924 717.157 475.389 716.175C450.349 787.585 279.178 800.026 233.46 780.098Z" fill="#2D2D2D" stroke="#2D2D2D"/>
<path d="M203.816 762.868C204.287 761.574 204.748 760.143 205.196 758.565C204.678 760.22 204.224 761.64 203.816 762.868C201.116 770.277 198.05 773.194 194.706 773.438C155.281 776.306 103.841 750.073 86.3285 721.163C85.8637 722.179 86.5365 727.159 86.5365 727.159C123.592 771.401 187.331 777.195 196.222 773.885C200.433 770.715 201.227 770.648 203.816 762.868Z" fill="#2D2D2D"/>
<path d="M205.196 758.565C202.179 769.176 198.635 773.152 194.706 773.438C155.281 776.306 103.841 750.073 86.3285 721.163C85.8637 722.179 86.5365 727.159 86.5365 727.159C123.592 771.401 187.331 777.195 196.222 773.885C201.098 770.214 201.393 770.704 205.196 758.565Z" stroke="#2D2D2D"/>
<path d="M281.451 620.339C278.939 634.435 280.691 661.039 281.477 664.365C282.65 669.327 283.753 672.291 288.268 672.634C292.864 672.984 353.385 674.879 404.507 663.1C420.579 659.397 432.296 653.631 434.556 649.55C435.686 647.51 433.424 616.903 432.375 601.096" stroke="#2D2D2D" stroke-width="3"/>
<path d="M205.298 249.831C208.035 249.989 200.948 228.834 196.276 222.554C192.373 218.823 191.948 219.51 186.475 219.194C186.81 229.23 187.916 237.808 192.446 242.577C193.796 243.999 201.707 248.622 205.298 249.831Z" fill="url(#paint15_radial_2959_3)" stroke="#545454"/>
<path d="M194.504 231.044C195.204 230.903 195.904 231.15 196.505 231.714C197.109 232.281 197.584 233.149 197.786 234.152C198.014 235.283 198.277 236.371 198.278 237.238C198.279 237.665 198.214 237.973 198.096 238.178C197.992 238.359 197.827 238.5 197.51 238.563C197.175 238.631 196.716 238.591 196.181 238.427C195.653 238.265 195.087 237.993 194.556 237.644C193.468 236.928 192.635 235.962 192.453 235.062C192.049 233.053 193.073 231.333 194.504 231.044Z" fill="#1DFF5D" stroke="#1D6C29"/>
<path d="M96.739 63.2163L92.4503 70.6059L184.554 218.991L105.78 63.7271L96.739 63.2163Z" fill="#FF1414"/>
<defs>
<filter id="filter0_i_2959_3" x="279.478" y="596.505" width="159.054" height="176.875" filterUnits="userSpaceOnUse" color-interpolation-filters="sRGB">
<feFlood flood-opacity="0" result="BackgroundImageFix"/>
<feBlend mode="normal" in="SourceGraphic" in2="BackgroundImageFix" result="shape"/>
<feColorMatrix in="SourceAlpha" type="matrix" values="0 0 0 0 0 0 0 0 0 0 0 0 0 0 0 0 0 0 127 0" result="hardAlpha"/>
<feOffset dx="2" dy="-4"/>
<feGaussianBlur stdDeviation="2"/>
<feComposite in2="hardAlpha" operator="arithmetic" k2="-1" k3="1"/>
<feColorMatrix type="matrix" values="0 0 0 0 0 0 0 0 0 0 0 0 0 0 0 0 0 0 0.25 0"/>
<feBlend mode="normal" in2="shape" result="effect1_innerShadow_2959_3"/>
</filter>
<filter id="filter1_i_2959_3" x="278.478" y="600.505" width="157.128" height="76.3159" filterUnits="userSpaceOnUse" color-interpolation-filters="sRGB">
<feFlood flood-opacity="0" result="BackgroundImageFix"/>
<feBlend mode="normal" in="SourceGraphic" in2="BackgroundImageFix" result="shape"/>
<feColorMatrix in="SourceAlpha" type="matrix" values="0 0 0 0 0 0 0 0 0 0 0 0 0 0 0 0 0 0 127 0" result="hardAlpha"/>
<feOffset dx="-1" dy="3"/>
<feGaussianBlur stdDeviation="2"/>
<feComposite in2="hardAlpha" operator="arithmetic" k2="-1" k3="1"/>
<feColorMatrix type="matrix" values="0 0 0 0 0 0 0 0 0 0 0 0 0 0 0 0 0 0 0.25 0"/>
<feBlend mode="normal" in2="shape" result="effect1_innerShadow_2959_3"/>
</filter>
<filter id="filter2_i_2959_3" x="80.1807" y="595.89" width="74.4834" height="145.574" filterUnits="userSpaceOnUse" color-interpolation-filters="sRGB">
<feFlood flood-opacity="0" result="BackgroundImageFix"/>
<feBlend mode="normal" in="SourceGraphic" in2="BackgroundImageFix" result="shape"/>
<feColorMatrix in="SourceAlpha" type="matrix" values="0 0 0 0 0 0 0 0 0 0 0 0 0 0 0 0 0 0 127 0" result="hardAlpha"/>
<feOffset dx="-3"/>
<feGaussianBlur stdDeviation="2"/>
<feComposite in2="hardAlpha" operator="arithmetic" k2="-1" k3="1"/>
<feColorMatrix type="matrix" values="0 0 0 0 0 0 0 0 0 0 0 0 0 0 0 0 0 0 0.25 0"/>
<feBlend mode="normal" in2="shape" result="effect1_innerShadow_2959_3"/>
</filter>
<filter id="filter3_i_2959_3" x="81.25" y="582.112" width="70.5023" height="76.2357" filterUnits="userSpaceOnUse" color-interpolation-filters="sRGB">
<feFlood flood-opacity="0" result="BackgroundImageFix"/>
<feBlend mode="normal" in="SourceGraphic" in2="BackgroundImageFix" result="shape"/>
<feColorMatrix in="SourceAlpha" type="matrix" values="0 0 0 0 0 0 0 0 0 0 0 0 0 0 0 0 0 0 127 0" result="hardAlpha"/>
<feOffset dy="4"/>
<feGaussianBlur stdDeviation="2"/>
<feComposite in2="hardAlpha" operator="arithmetic" k2="-1" k3="1"/>
<feColorMatrix type="matrix" values="0 0 0 0 0 0 0 0 0 0 0 0 0 0 0 0 0 0 0.25 0"/>
<feBlend mode="normal" in2="shape" result="effect1_innerShadow_2959_3"/>
</filter>
<linearGradient id="paint0_linear_2959_3" x1="57.112" y1="492.626" x2="518.222" y2="430.107" gradientUnits="userSpaceOnUse">
<stop offset="0.119384" stop-color="#F2FF7B"/>
<stop offset="0.788462" stop-color="#BEB550"/>
</linearGradient>
<linearGradient id="paint1_linear_2959_3" x1="421.595" y1="197.316" x2="348.319" y2="320.43" gradientUnits="userSpaceOnUse">
<stop offset="0.322113" stop-color="#CDCDCD"/>
<stop offset="1" stop-color="#989898"/>
</linearGradient>
<linearGradient id="paint2_linear_2959_3" x1="111.908" y1="233.503" x2="143.491" y2="309.955" gradientUnits="userSpaceOnUse">
<stop stop-color="#CDCDCD"/>
<stop offset="1" stop-color="#9F9F9F"/>
</linearGradient>
<linearGradient id="paint3_linear_2959_3" x1="74.4975" y1="489.022" x2="510.507" y2="452.888" gradientUnits="userSpaceOnUse">
<stop stop-color="#565454"/>
<stop offset="0.0769231" stop-color="#A2A2A2"/>
<stop offset="0.841346" stop-color="#ABABAB"/>
<stop offset="1" stop-color="#E2E2E2"/>
</linearGradient>
<linearGradient id="paint4_linear_2959_3" x1="72.368" y1="568.724" x2="508.378" y2="532.59" gradientUnits="userSpaceOnUse">
<stop stop-color="#565454"/>
<stop offset="0.0769231" stop-color="#A2A2A2"/>
<stop offset="0.841346" stop-color="#ABABAB"/>
<stop offset="1" stop-color="#E2E2E2"/>
</linearGradient>
<linearGradient id="paint5_linear_2959_3" x1="222.417" y1="267.762" x2="288.485" y2="109.877" gradientUnits="userSpaceOnUse">
<stop stop-color="#727272"/>
<stop offset="1" stop-color="#191919"/>
</linearGradient>
<linearGradient id="paint6_linear_2959_3" x1="254.873" y1="440.74" x2="158.404" y2="438.284" gradientUnits="userSpaceOnUse">
<stop offset="0.155964" stop-color="#767171"/>
<stop offset="0.975962" stop-color="#252525"/>
</linearGradient>
<linearGradient id="paint7_linear_2959_3" x1="282.325" y1="694.791" x2="435.429" y2="689.481" gradientUnits="userSpaceOnUse">
<stop stop-color="#EAEC54"/>
<stop offset="1" stop-color="#D0D263"/>
</linearGradient>
<linearGradient id="paint8_linear_2959_3" x1="361.508" y1="315.656" x2="534.877" y2="295.199" gradientUnits="userSpaceOnUse">
<stop stop-color="#D6D6D6"/>
<stop offset="1"/>
</linearGradient>
<linearGradient id="paint9_linear_2959_3" x1="232.208" y1="268.158" x2="226.172" y2="309.808" gradientUnits="userSpaceOnUse">
<stop offset="0.205014"/>
<stop offset="0.576923" stop-color="#333333"/>
<stop offset="0.692308" stop-color="#999999"/>
<stop offset="0.730769" stop-color="#CCCCCC"/>
<stop offset="1" stop-color="#1A1A1A"/>
</linearGradient>
<linearGradient id="paint10_linear_2959_3" x1="228.504" y1="292.22" x2="226.778" y2="302.536" gradientUnits="userSpaceOnUse">
<stop offset="0.432692" stop-color="#A8A8A8"/>
<stop offset="1" stop-color="#424242"/>
</linearGradient>
<linearGradient id="paint11_linear_2959_3" x1="189.587" y1="453.79" x2="186.506" y2="482.258" gradientUnits="userSpaceOnUse">
<stop offset="0.205014"/>
<stop offset="0.576923" stop-color="#333333"/>
<stop offset="0.692308" stop-color="#999999"/>
<stop offset="0.730769" stop-color="#CCCCCC"/>
<stop offset="1" stop-color="#1A1A1A"/>
</linearGradient>
<linearGradient id="paint12_linear_2959_3" x1="187.698" y1="470.246" x2="187.093" y2="477.334" gradientUnits="userSpaceOnUse">
<stop offset="0.432692" stop-color="#A8A8A8"/>
<stop offset="1" stop-color="#424242"/>
</linearGradient>
<linearGradient id="paint13_linear_2959_3" x1="235.768" y1="458.193" x2="232.686" y2="486.66" gradientUnits="userSpaceOnUse">
<stop offset="0.205014"/>
<stop offset="0.576923" stop-color="#333333"/>
<stop offset="0.692308" stop-color="#999999"/>
<stop offset="0.730769" stop-color="#CCCCCC"/>
<stop offset="1" stop-color="#1A1A1A"/>
</linearGradient>
<linearGradient id="paint14_linear_2959_3" x1="233.878" y1="474.648" x2="233.274" y2="481.736" gradientUnits="userSpaceOnUse">
<stop offset="0.432692" stop-color="#A8A8A8"/>
<stop offset="1" stop-color="#424242"/>
</linearGradient>
<radialGradient id="paint15_radial_2959_3" cx="0" cy="0" r="1" gradientUnits="userSpaceOnUse" gradientTransform="translate(196.2 234.518) rotate(93.308) scale(14.7623 10.5927)">
<stop stop-color="#D9D9D9"/>
<stop offset="0.144231" stop-color="#BCBCBC"/>
<stop offset="1" stop-color="#655F5F"/>
</radialGradient>
</defs>
</svg>
